<?xml version="1.0" encoding="UTF-8"?>
<svg id="Calque_1" data-name="Calque 1" xmlns="http://www.w3.org/2000/svg" width="1270" height="800" viewBox="0 0 1270 800">
  <defs>
    <style>
      .cls-1 {
        fill: #fff;
      }

      .cls-1, .cls-2 {
        stroke: #1d1d1b;
        stroke-miterlimit: 10;
      }

      .cls-3 {
        fill: #1d1d1b;
        stroke-width: 0px;
      }

      .cls-2 {
        fill: none;
      }
    </style>
  </defs>
  <g id="fenetre">
    <line class="cls-1" x1="539.17" y1="443.97" x2="545.02" y2="443.97"/>
    <g id="FENETRE">
      <rect class="cls-1" x="528.71" y="420.36" width="18.65" height="29.66"/>
      <rect class="cls-1" x="530.99" y="431.87" width="5.85" height="16.07"/>
      <rect class="cls-1" x="538.92" y="431.87" width="5.85" height="16.07"/>
      <rect class="cls-1" x="538.92" y="422.15" width="5.85" height="8.04"/>
      <rect class="cls-1" x="530.99" y="422.15" width="5.85" height="8.04"/>
      <line class="cls-1" x1="533.91" y1="431.87" x2="533.91" y2="447.94"/>
      <line class="cls-1" x1="541.85" y1="431.87" x2="541.85" y2="447.94"/>
      <line class="cls-1" x1="541.85" y1="422.15" x2="541.85" y2="430.18"/>
      <line class="cls-1" x1="533.91" y1="422.15" x2="533.91" y2="430.18"/>
      <line class="cls-1" x1="538.92" y1="426.17" x2="544.78" y2="426.17"/>
      <line class="cls-1" x1="530.99" y1="426.17" x2="536.84" y2="426.17"/>
      <line class="cls-1" x1="539.17" y1="436.04" x2="545.02" y2="436.04"/>
      <line class="cls-1" x1="538.92" y1="439.91" x2="544.78" y2="439.91"/>
      <line class="cls-1" x1="531.11" y1="435.94" x2="536.96" y2="435.94"/>
      <line class="cls-1" x1="530.86" y1="439.81" x2="536.72" y2="439.81"/>
      <line class="cls-1" x1="531.11" y1="443.87" x2="536.96" y2="443.87"/>
    </g>
  </g>
  <g id="barriere">
    <rect class="cls-2" x="495.18" y="392.09" width="264.07" height="16.53"/>
    <line class="cls-2" x1="495.18" y1="396.06" x2="759.25" y2="396.06"/>
    <g id="blason">
      <circle class="cls-3" cx="548.93" cy="395.33" r="7.08"/>
      <circle class="cls-3" cx="628.7" cy="396.06" r="7.08"/>
      <circle class="cls-3" cx="708.72" cy="396.06" r="7.08"/>
    </g>
  </g>
  <g id="brique">
    <rect class="cls-2" x="502.67" y="427.46" width="15.03" height="4.41"/>
    <rect class="cls-2" x="510.18" y="422.74" width="13.07" height="4.41"/>
    <rect class="cls-2" x="556.77" y="427.46" width="19.29" height="4.41"/>
    <rect class="cls-2" x="603.33" y="441.07" width="15.03" height="4.41"/>
    <rect class="cls-2" x="552.54" y="441.07" width="15.03" height="4.41"/>
    <rect class="cls-2" x="606.08" y="419.94" width="12.28" height="4.41"/>
    <rect class="cls-2" x="647.9" y="427.98" width="15.03" height="4.41"/>
    <rect class="cls-2" x="654.52" y="423.56" width="13.33" height="4.41"/>
    <rect class="cls-2" x="661.19" y="436.66" width="10.9" height="4.41"/>
    <rect class="cls-2" x="647" y="445.34" width="15.03" height="4.41"/>
    <rect class="cls-2" x="737.58" y="427.98" width="15.03" height="4.41"/>
    <rect class="cls-2" x="734.54" y="441.07" width="15.58" height="4.41"/>
    <rect class="cls-2" x="677.93" y="427.98" width="6.63" height="4.41"/>
    <rect class="cls-2" x="641" y="470.57" width="12.94" height="4.41"/>
    <rect class="cls-2" x="536.15" y="450.02" width="13.47" height="4.41"/>
    <rect class="cls-2" x="491.27" y="455.65" width="10.25" height="5.58"/>
    <rect class="cls-2" x="658.98" y="329.77" width="16.15" height="4.41"/>
    <rect class="cls-2" x="495.15" y="345.97" width="7.51" height="4.41"/>
    <rect class="cls-2" x="454.92" y="330.49" width="12.01" height="4.41"/>
    <rect class="cls-2" x="320.01" y="436.18" width="15.03" height="4.41"/>
    <rect class="cls-2" x="297" y="333.01" width="15.03" height="4.41"/>
    <rect class="cls-2" x="307.97" y="328.59" width="15.03" height="4.41"/>
    <rect class="cls-2" x="304.51" y="337.42" width="9.46" height="4.41"/>
    <rect class="cls-2" x="835.76" y="472.27" width="15.03" height="4.41"/>
    <rect class="cls-2" x="829.34" y="465.95" width="8.7" height="4.41"/>
    <rect class="cls-2" x="863.78" y="476.68" width="9.45" height="4.41"/>
    <rect class="cls-2" x="921.32" y="406.05" width="15.03" height="4.41"/>
    <rect class="cls-2" x="936.35" y="406.05" width="15.03" height="4.41"/>
    <rect class="cls-2" x="930.86" y="401.64" width="15.03" height="4.41"/>
    <rect class="cls-2" x="838.77" y="429.7" width="15.03" height="4.41"/>
    <rect class="cls-2" x="833.48" y="434.11" width="15.03" height="4.41"/>
    <rect class="cls-2" x="733.48" y="361.75" width="15.03" height="4.41"/>
    <rect class="cls-2" x="761.79" y="353.51" width="15.03" height="4.41"/>
    <rect class="cls-2" x="451.45" y="414.73" width="12.57" height="4.41"/>
    <rect class="cls-2" x="434.56" y="414.73" width="12.97" height="4.41"/>
    <rect class="cls-2" x="369.88" y="389.88" width="11.48" height="4.41"/>
    <rect class="cls-2" x="457.26" y="374.14" width="15.03" height="4.41"/>
  </g>
  <g id="fenetre-2" data-name="fenetre">
    <rect class="cls-2" x="619.38" y="420.16" width="18.65" height="29.66"/>
    <rect class="cls-2" x="621.66" y="431.67" width="5.85" height="16.07"/>
    <rect class="cls-2" x="629.59" y="431.67" width="5.85" height="16.07"/>
    <rect class="cls-2" x="629.59" y="421.95" width="5.85" height="8.04"/>
    <rect class="cls-2" x="621.66" y="421.95" width="5.85" height="8.04"/>
    <line class="cls-2" x1="624.58" y1="431.67" x2="624.58" y2="447.74"/>
    <line class="cls-2" x1="632.52" y1="431.67" x2="632.52" y2="447.74"/>
    <line class="cls-2" x1="632.52" y1="421.95" x2="632.52" y2="429.99"/>
    <line class="cls-2" x1="624.58" y1="421.95" x2="624.58" y2="429.99"/>
    <line class="cls-2" x1="629.59" y1="425.97" x2="635.45" y2="425.97"/>
    <line class="cls-2" x1="621.66" y1="425.97" x2="627.51" y2="425.97"/>
    <line class="cls-2" x1="629.84" y1="435.84" x2="635.69" y2="435.84"/>
    <line class="cls-2" x1="629.59" y1="439.71" x2="635.45" y2="439.71"/>
    <line class="cls-2" x1="621.78" y1="435.74" x2="627.63" y2="435.74"/>
    <line class="cls-2" x1="621.53" y1="439.61" x2="627.39" y2="439.61"/>
    <line class="cls-2" x1="621.78" y1="443.68" x2="627.63" y2="443.68"/>
    <line class="cls-2" x1="629.59" y1="443.68" x2="635.45" y2="443.68"/>
  </g>
  <g id="fenetre-3" data-name="fenetre">
    <g id="FENETRE-2" data-name="FENETRE">
      <rect class="cls-2" x="708.72" y="420.36" width="18.65" height="29.66"/>
      <rect class="cls-2" x="711" y="431.87" width="5.85" height="16.07"/>
      <rect class="cls-2" x="718.94" y="431.87" width="5.85" height="16.07"/>
      <rect class="cls-2" x="718.94" y="422.15" width="5.85" height="8.04"/>
      <rect class="cls-2" x="711" y="422.15" width="5.85" height="8.04"/>
      <line class="cls-2" x1="713.93" y1="431.87" x2="713.93" y2="447.94"/>
      <line class="cls-2" x1="721.87" y1="431.87" x2="721.87" y2="447.94"/>
      <line class="cls-2" x1="721.87" y1="422.15" x2="721.87" y2="430.18"/>
      <line class="cls-2" x1="713.93" y1="422.15" x2="713.93" y2="430.18"/>
      <line class="cls-2" x1="718.94" y1="426.17" x2="724.79" y2="426.17"/>
      <line class="cls-2" x1="711" y1="426.17" x2="716.86" y2="426.17"/>
      <line class="cls-2" x1="719.19" y1="436.04" x2="725.04" y2="436.04"/>
      <line class="cls-2" x1="718.94" y1="439.91" x2="724.79" y2="439.91"/>
      <line class="cls-2" x1="711.13" y1="435.94" x2="716.98" y2="435.94"/>
      <line class="cls-2" x1="710.88" y1="439.81" x2="716.73" y2="439.81"/>
      <line class="cls-2" x1="711.13" y1="443.87" x2="716.98" y2="443.87"/>
    </g>
    <line class="cls-2" x1="718.94" y1="443.87" x2="724.79" y2="443.87"/>
  </g>
  <g id="fenetre-4" data-name="fenetre">
    <g id="FENETRE-3" data-name="FENETRE">
      <rect class="cls-2" x="795.69" y="430.51" width="18.65" height="29.66"/>
      <rect class="cls-2" x="797.97" y="442.01" width="5.85" height="16.07"/>
      <rect class="cls-2" x="805.91" y="442.01" width="5.85" height="16.07"/>
      <rect class="cls-2" x="805.91" y="432.29" width="5.85" height="8.04"/>
      <rect class="cls-2" x="797.97" y="432.29" width="5.85" height="8.04"/>
      <line class="cls-2" x1="800.9" y1="442.01" x2="800.9" y2="458.08"/>
      <line class="cls-2" x1="808.83" y1="442.01" x2="808.83" y2="458.08"/>
      <line class="cls-2" x1="808.83" y1="432.29" x2="808.83" y2="440.33"/>
      <line class="cls-2" x1="800.9" y1="432.29" x2="800.9" y2="440.33"/>
      <line class="cls-2" x1="805.91" y1="436.31" x2="811.76" y2="436.31"/>
      <line class="cls-2" x1="797.97" y1="436.31" x2="803.82" y2="436.31"/>
      <line class="cls-2" x1="806.16" y1="446.18" x2="812.01" y2="446.18"/>
      <line class="cls-2" x1="805.91" y1="450.05" x2="811.76" y2="450.05"/>
      <line class="cls-2" x1="798.1" y1="446.08" x2="803.95" y2="446.08"/>
      <line class="cls-2" x1="797.85" y1="449.95" x2="803.7" y2="449.95"/>
      <line class="cls-2" x1="798.1" y1="454.02" x2="803.95" y2="454.02"/>
    </g>
    <line class="cls-2" x1="805.91" y1="454.02" x2="811.76" y2="454.02"/>
  </g>
  <g id="fenetre-5" data-name="fenetre">
    <g id="FENETRE-4" data-name="FENETRE">
      <rect class="cls-2" x="884.52" y="430.51" width="18.65" height="29.66"/>
      <rect class="cls-2" x="886.8" y="442.01" width="5.85" height="16.07"/>
      <rect class="cls-2" x="894.73" y="442.01" width="5.85" height="16.07"/>
      <rect class="cls-2" x="894.73" y="432.29" width="5.85" height="8.04"/>
      <rect class="cls-2" x="886.8" y="432.29" width="5.85" height="8.04"/>
      <line class="cls-2" x1="889.72" y1="442.01" x2="889.72" y2="458.08"/>
      <line class="cls-2" x1="897.66" y1="442.01" x2="897.66" y2="458.08"/>
      <line class="cls-2" x1="897.66" y1="432.29" x2="897.66" y2="440.33"/>
      <line class="cls-2" x1="889.72" y1="432.29" x2="889.72" y2="440.33"/>
      <line class="cls-2" x1="894.73" y1="436.31" x2="900.59" y2="436.31"/>
      <line class="cls-2" x1="886.8" y1="436.31" x2="892.65" y2="436.31"/>
      <line class="cls-2" x1="894.98" y1="446.18" x2="900.84" y2="446.18"/>
      <line class="cls-2" x1="894.73" y1="450.05" x2="900.59" y2="450.05"/>
      <line class="cls-2" x1="886.92" y1="446.08" x2="892.77" y2="446.08"/>
      <line class="cls-2" x1="886.67" y1="449.95" x2="892.53" y2="449.95"/>
      <line class="cls-2" x1="886.92" y1="454.02" x2="892.77" y2="454.02"/>
    </g>
    <line class="cls-2" x1="894.73" y1="454.02" x2="900.59" y2="454.02"/>
  </g>
  <g id="fenetre-6" data-name="fenetre">
    <g id="FENETRE-5" data-name="FENETRE">
      <rect class="cls-2" x="884.52" y="380.81" width="18.65" height="29.66"/>
      <rect class="cls-2" x="886.8" y="392.31" width="5.85" height="16.07"/>
      <rect class="cls-2" x="894.73" y="392.31" width="5.85" height="16.07"/>
      <rect class="cls-2" x="894.73" y="382.59" width="5.85" height="8.04"/>
      <rect class="cls-2" x="886.8" y="382.59" width="5.85" height="8.04"/>
      <line class="cls-2" x1="889.72" y1="392.31" x2="889.72" y2="408.38"/>
      <line class="cls-2" x1="897.66" y1="392.31" x2="897.66" y2="408.38"/>
      <line class="cls-2" x1="897.66" y1="382.59" x2="897.66" y2="390.63"/>
      <line class="cls-2" x1="889.72" y1="382.59" x2="889.72" y2="390.63"/>
      <line class="cls-2" x1="894.73" y1="386.61" x2="900.59" y2="386.61"/>
      <line class="cls-2" x1="886.8" y1="386.61" x2="892.65" y2="386.61"/>
      <line class="cls-2" x1="894.98" y1="396.48" x2="900.84" y2="396.48"/>
      <line class="cls-2" x1="894.73" y1="400.35" x2="900.59" y2="400.35"/>
      <line class="cls-2" x1="886.92" y1="396.38" x2="892.77" y2="396.38"/>
      <line class="cls-2" x1="886.67" y1="400.25" x2="892.53" y2="400.25"/>
      <line class="cls-2" x1="886.92" y1="404.32" x2="892.77" y2="404.32"/>
    </g>
    <line class="cls-2" x1="894.73" y1="404.32" x2="900.59" y2="404.32"/>
  </g>
  <g id="fenetre-7" data-name="fenetre">
    <g id="FENETRE-6" data-name="FENETRE">
      <rect class="cls-2" x="796" y="380.81" width="18.65" height="29.66"/>
      <rect class="cls-2" x="798.29" y="392.31" width="5.85" height="16.07"/>
      <rect class="cls-2" x="806.22" y="392.31" width="5.85" height="16.07"/>
      <rect class="cls-2" x="806.22" y="382.59" width="5.85" height="8.04"/>
      <rect class="cls-2" x="798.29" y="382.59" width="5.85" height="8.04"/>
      <line class="cls-2" x1="801.21" y1="392.31" x2="801.21" y2="408.38"/>
      <line class="cls-2" x1="809.15" y1="392.31" x2="809.15" y2="408.38"/>
      <line class="cls-2" x1="809.15" y1="382.59" x2="809.15" y2="390.63"/>
      <line class="cls-2" x1="801.21" y1="382.59" x2="801.21" y2="390.63"/>
      <line class="cls-2" x1="806.22" y1="386.61" x2="812.07" y2="386.61"/>
      <line class="cls-2" x1="798.29" y1="386.61" x2="804.14" y2="386.61"/>
      <line class="cls-2" x1="806.47" y1="396.48" x2="812.32" y2="396.48"/>
      <line class="cls-2" x1="806.22" y1="400.35" x2="812.07" y2="400.35"/>
      <line class="cls-2" x1="798.41" y1="396.38" x2="804.26" y2="396.38"/>
      <line class="cls-2" x1="798.16" y1="400.25" x2="804.01" y2="400.25"/>
      <line class="cls-2" x1="798.41" y1="404.32" x2="804.26" y2="404.32"/>
    </g>
    <line class="cls-2" x1="806.22" y1="404.32" x2="812.07" y2="404.32"/>
  </g>
  <g id="fenetre-8" data-name="fenetre">
    <g id="FENETRE-7" data-name="FENETRE">
      <rect class="cls-2" x="796" y="332.07" width="18.65" height="29.66"/>
      <rect class="cls-2" x="798.29" y="343.58" width="5.85" height="16.07"/>
      <rect class="cls-2" x="806.22" y="343.58" width="5.85" height="16.07"/>
      <rect class="cls-2" x="806.22" y="333.86" width="5.85" height="8.04"/>
      <rect class="cls-2" x="798.29" y="333.86" width="5.85" height="8.04"/>
      <line class="cls-2" x1="801.21" y1="343.58" x2="801.21" y2="359.65"/>
      <line class="cls-2" x1="809.15" y1="343.58" x2="809.15" y2="359.65"/>
      <line class="cls-2" x1="809.15" y1="333.86" x2="809.15" y2="341.89"/>
      <line class="cls-2" x1="801.21" y1="333.86" x2="801.21" y2="341.89"/>
      <line class="cls-2" x1="806.22" y1="337.88" x2="812.07" y2="337.88"/>
      <line class="cls-2" x1="798.29" y1="337.88" x2="804.14" y2="337.88"/>
      <line class="cls-2" x1="806.47" y1="347.75" x2="812.32" y2="347.75"/>
      <line class="cls-2" x1="806.22" y1="351.62" x2="812.07" y2="351.62"/>
      <line class="cls-2" x1="798.41" y1="347.65" x2="804.26" y2="347.65"/>
      <line class="cls-2" x1="798.16" y1="351.52" x2="804.01" y2="351.52"/>
      <line class="cls-2" x1="798.41" y1="355.58" x2="804.26" y2="355.58"/>
    </g>
    <line class="cls-2" x1="806.22" y1="355.58" x2="812.07" y2="355.58"/>
  </g>
  <g id="fenetre-9" data-name="fenetre">
    <g id="FENETRE-8" data-name="FENETRE">
      <rect class="cls-2" x="884.52" y="332.07" width="18.65" height="29.66"/>
      <rect class="cls-2" x="886.8" y="343.58" width="5.85" height="16.07"/>
      <rect class="cls-2" x="894.73" y="343.58" width="5.85" height="16.07"/>
      <rect class="cls-2" x="894.73" y="333.86" width="5.85" height="8.04"/>
      <rect class="cls-2" x="886.8" y="333.86" width="5.85" height="8.04"/>
      <line class="cls-2" x1="889.72" y1="343.58" x2="889.72" y2="359.65"/>
      <line class="cls-2" x1="897.66" y1="343.58" x2="897.66" y2="359.65"/>
      <line class="cls-2" x1="897.66" y1="333.86" x2="897.66" y2="341.89"/>
      <line class="cls-2" x1="889.72" y1="333.86" x2="889.72" y2="341.89"/>
      <line class="cls-2" x1="894.73" y1="337.88" x2="900.59" y2="337.88"/>
      <line class="cls-2" x1="886.8" y1="337.88" x2="892.65" y2="337.88"/>
      <line class="cls-2" x1="894.98" y1="347.75" x2="900.84" y2="347.75"/>
      <line class="cls-2" x1="894.73" y1="351.62" x2="900.59" y2="351.62"/>
      <line class="cls-2" x1="886.92" y1="347.65" x2="892.77" y2="347.65"/>
      <line class="cls-2" x1="886.67" y1="351.52" x2="892.53" y2="351.52"/>
      <line class="cls-2" x1="886.92" y1="355.58" x2="892.77" y2="355.58"/>
    </g>
    <line class="cls-2" x1="894.73" y1="355.58" x2="900.59" y2="355.58"/>
  </g>
  <g id="fenetre-10" data-name="fenetre">
    <g id="FENETRE-9" data-name="FENETRE">
      <rect class="cls-2" x="703.1" y="331.97" width="18.65" height="29.66"/>
      <rect class="cls-2" x="705.38" y="343.48" width="5.85" height="16.07"/>
      <rect class="cls-2" x="713.32" y="343.48" width="5.85" height="16.07"/>
      <rect class="cls-2" x="713.32" y="333.76" width="5.85" height="8.04"/>
      <rect class="cls-2" x="705.38" y="333.76" width="5.85" height="8.04"/>
      <line class="cls-2" x1="708.31" y1="343.48" x2="708.31" y2="359.55"/>
      <line class="cls-2" x1="716.25" y1="343.48" x2="716.25" y2="359.55"/>
      <line class="cls-2" x1="716.25" y1="333.76" x2="716.25" y2="341.8"/>
      <line class="cls-2" x1="708.31" y1="333.76" x2="708.31" y2="341.8"/>
      <line class="cls-2" x1="713.32" y1="337.78" x2="719.17" y2="337.78"/>
      <line class="cls-2" x1="705.38" y1="337.78" x2="711.24" y2="337.78"/>
      <line class="cls-2" x1="713.57" y1="347.65" x2="719.42" y2="347.65"/>
      <line class="cls-2" x1="713.32" y1="351.52" x2="719.17" y2="351.52"/>
      <line class="cls-2" x1="705.51" y1="347.55" x2="711.36" y2="347.55"/>
      <line class="cls-2" x1="705.26" y1="351.42" x2="711.11" y2="351.42"/>
      <line class="cls-2" x1="705.51" y1="355.48" x2="711.36" y2="355.48"/>
    </g>
    <line class="cls-2" x1="713.32" y1="355.48" x2="719.17" y2="355.48"/>
  </g>
  <g id="fenetre-11" data-name="fenetre">
    <g id="FENETRE-10" data-name="FENETRE">
      <rect class="cls-2" x="616.05" y="331.97" width="18.65" height="29.66"/>
      <rect class="cls-2" x="618.33" y="343.48" width="5.85" height="16.07"/>
      <rect class="cls-2" x="626.27" y="343.48" width="5.85" height="16.07"/>
      <rect class="cls-2" x="626.27" y="333.76" width="5.85" height="8.04"/>
      <rect class="cls-2" x="618.33" y="333.76" width="5.85" height="8.04"/>
      <line class="cls-2" x1="621.26" y1="343.48" x2="621.26" y2="359.55"/>
      <line class="cls-2" x1="629.2" y1="343.48" x2="629.2" y2="359.55"/>
      <line class="cls-2" x1="629.2" y1="333.76" x2="629.2" y2="341.8"/>
      <line class="cls-2" x1="621.26" y1="333.76" x2="621.26" y2="341.8"/>
      <line class="cls-2" x1="626.27" y1="337.78" x2="632.12" y2="337.78"/>
      <line class="cls-2" x1="618.33" y1="337.78" x2="624.19" y2="337.78"/>
      <line class="cls-2" x1="626.52" y1="347.65" x2="632.37" y2="347.65"/>
      <line class="cls-2" x1="626.27" y1="351.52" x2="632.12" y2="351.52"/>
      <line class="cls-2" x1="618.46" y1="347.55" x2="624.31" y2="347.55"/>
      <line class="cls-2" x1="618.21" y1="351.42" x2="624.06" y2="351.42"/>
      <line class="cls-2" x1="618.46" y1="355.48" x2="624.31" y2="355.48"/>
    </g>
    <line class="cls-2" x1="626.27" y1="355.48" x2="632.12" y2="355.48"/>
  </g>
  <g id="fenetre-12" data-name="fenetre">
    <g id="FENETRE-11" data-name="FENETRE">
      <rect class="cls-2" x="528.01" y="332.07" width="18.65" height="29.66"/>
      <rect class="cls-2" x="530.29" y="343.58" width="5.85" height="16.07"/>
      <rect class="cls-2" x="538.23" y="343.58" width="5.85" height="16.07"/>
      <rect class="cls-2" x="538.23" y="333.86" width="5.85" height="8.04"/>
      <rect class="cls-2" x="530.29" y="333.86" width="5.85" height="8.04"/>
      <line class="cls-2" x1="533.22" y1="343.58" x2="533.22" y2="359.65"/>
      <line class="cls-2" x1="541.16" y1="343.58" x2="541.16" y2="359.65"/>
      <line class="cls-2" x1="541.16" y1="333.86" x2="541.16" y2="341.89"/>
      <line class="cls-2" x1="533.22" y1="333.86" x2="533.22" y2="341.89"/>
      <line class="cls-2" x1="538.23" y1="337.88" x2="544.08" y2="337.88"/>
      <line class="cls-2" x1="530.29" y1="337.88" x2="536.15" y2="337.88"/>
      <line class="cls-2" x1="538.48" y1="347.75" x2="544.33" y2="347.75"/>
      <line class="cls-2" x1="538.23" y1="351.62" x2="544.08" y2="351.62"/>
      <line class="cls-2" x1="530.42" y1="347.65" x2="536.27" y2="347.65"/>
      <line class="cls-2" x1="530.17" y1="351.52" x2="536.02" y2="351.52"/>
      <line class="cls-2" x1="530.42" y1="355.58" x2="536.27" y2="355.58"/>
    </g>
    <line class="cls-2" x1="538.23" y1="355.58" x2="544.08" y2="355.58"/>
  </g>
  <g id="fenetre-13" data-name="fenetre">
    <g id="FENETRE-12" data-name="FENETRE">
      <rect class="cls-2" x="437.02" y="332.07" width="18.65" height="29.66"/>
      <rect class="cls-2" x="439.3" y="343.58" width="5.85" height="16.07"/>
      <rect class="cls-2" x="447.24" y="343.58" width="5.85" height="16.07"/>
      <rect class="cls-2" x="447.24" y="333.86" width="5.85" height="8.04"/>
      <rect class="cls-2" x="439.3" y="333.86" width="5.85" height="8.04"/>
      <line class="cls-2" x1="442.23" y1="343.58" x2="442.23" y2="359.65"/>
      <line class="cls-2" x1="450.16" y1="343.58" x2="450.16" y2="359.65"/>
      <line class="cls-2" x1="450.16" y1="333.86" x2="450.16" y2="341.89"/>
      <line class="cls-2" x1="442.23" y1="333.86" x2="442.23" y2="341.89"/>
      <line class="cls-2" x1="447.24" y1="337.88" x2="453.09" y2="337.88"/>
      <line class="cls-2" x1="439.3" y1="337.88" x2="445.15" y2="337.88"/>
      <line class="cls-2" x1="447.48" y1="347.75" x2="453.34" y2="347.75"/>
      <line class="cls-2" x1="447.24" y1="351.62" x2="453.09" y2="351.62"/>
      <line class="cls-2" x1="439.42" y1="347.65" x2="445.28" y2="347.65"/>
      <line class="cls-2" x1="439.18" y1="351.52" x2="445.03" y2="351.52"/>
      <line class="cls-2" x1="439.42" y1="355.58" x2="445.28" y2="355.58"/>
    </g>
    <line class="cls-2" x1="447.24" y1="355.58" x2="453.09" y2="355.58"/>
  </g>
  <g id="fenetre-14" data-name="fenetre">
    <g id="FENETRE-13" data-name="FENETRE">
      <rect class="cls-2" x="346.11" y="332.07" width="18.65" height="29.66"/>
      <rect class="cls-2" x="348.39" y="343.58" width="5.85" height="16.07"/>
      <rect class="cls-2" x="356.33" y="343.58" width="5.85" height="16.07"/>
      <rect class="cls-2" x="356.33" y="333.86" width="5.85" height="8.04"/>
      <rect class="cls-2" x="348.39" y="333.86" width="5.85" height="8.04"/>
      <line class="cls-2" x1="351.32" y1="343.58" x2="351.32" y2="359.65"/>
      <line class="cls-2" x1="359.25" y1="343.58" x2="359.25" y2="359.65"/>
      <line class="cls-2" x1="359.25" y1="333.86" x2="359.25" y2="341.89"/>
      <line class="cls-2" x1="351.32" y1="333.86" x2="351.32" y2="341.89"/>
      <line class="cls-2" x1="356.33" y1="337.88" x2="362.18" y2="337.88"/>
      <line class="cls-2" x1="348.39" y1="337.88" x2="354.24" y2="337.88"/>
      <line class="cls-2" x1="356.57" y1="347.75" x2="362.43" y2="347.75"/>
      <line class="cls-2" x1="356.33" y1="351.62" x2="362.18" y2="351.62"/>
      <line class="cls-2" x1="348.51" y1="347.65" x2="354.37" y2="347.65"/>
      <line class="cls-2" x1="348.27" y1="351.52" x2="354.12" y2="351.52"/>
      <line class="cls-2" x1="348.51" y1="355.58" x2="354.37" y2="355.58"/>
    </g>
    <line class="cls-2" x1="356.33" y1="355.58" x2="362.18" y2="355.58"/>
  </g>
  <g id="fenetre-15" data-name="fenetre">
    <g id="FENETRE-14" data-name="FENETRE">
      <rect class="cls-2" x="346.11" y="380.53" width="18.65" height="29.66"/>
      <rect class="cls-2" x="348.39" y="392.04" width="5.85" height="16.07"/>
      <rect class="cls-2" x="356.33" y="392.04" width="5.85" height="16.07"/>
      <rect class="cls-2" x="356.33" y="382.32" width="5.85" height="8.04"/>
      <rect class="cls-2" x="348.39" y="382.32" width="5.85" height="8.04"/>
      <line class="cls-2" x1="351.32" y1="392.04" x2="351.32" y2="408.11"/>
      <line class="cls-2" x1="359.25" y1="392.04" x2="359.25" y2="408.11"/>
      <line class="cls-2" x1="359.25" y1="382.32" x2="359.25" y2="390.35"/>
      <line class="cls-2" x1="351.32" y1="382.32" x2="351.32" y2="390.35"/>
      <line class="cls-2" x1="356.33" y1="386.34" x2="362.18" y2="386.34"/>
      <line class="cls-2" x1="348.39" y1="386.34" x2="354.24" y2="386.34"/>
      <line class="cls-2" x1="356.57" y1="396.21" x2="362.43" y2="396.21"/>
      <line class="cls-2" x1="356.33" y1="400.08" x2="362.18" y2="400.08"/>
      <line class="cls-2" x1="348.51" y1="396.11" x2="354.37" y2="396.11"/>
      <line class="cls-2" x1="348.27" y1="399.98" x2="354.12" y2="399.98"/>
      <line class="cls-2" x1="348.51" y1="404.04" x2="354.37" y2="404.04"/>
    </g>
    <line class="cls-2" x1="356.33" y1="404.04" x2="362.18" y2="404.04"/>
  </g>
  <g id="fenetre-16" data-name="fenetre">
    <g id="FENETRE-15" data-name="FENETRE">
      <rect class="cls-2" x="437.09" y="380.53" width="18.65" height="29.66"/>
      <rect class="cls-2" x="439.37" y="392.04" width="5.85" height="16.07"/>
      <rect class="cls-2" x="447.31" y="392.04" width="5.85" height="16.07"/>
      <rect class="cls-2" x="447.31" y="382.32" width="5.85" height="8.04"/>
      <rect class="cls-2" x="439.37" y="382.32" width="5.85" height="8.04"/>
      <line class="cls-2" x1="442.3" y1="392.04" x2="442.3" y2="408.11"/>
      <line class="cls-2" x1="450.24" y1="392.04" x2="450.24" y2="408.11"/>
      <line class="cls-2" x1="450.24" y1="382.32" x2="450.24" y2="390.35"/>
      <line class="cls-2" x1="442.3" y1="382.32" x2="442.3" y2="390.35"/>
      <line class="cls-2" x1="447.31" y1="386.34" x2="453.16" y2="386.34"/>
      <line class="cls-2" x1="439.37" y1="386.34" x2="445.23" y2="386.34"/>
      <line class="cls-2" x1="447.56" y1="396.21" x2="453.41" y2="396.21"/>
      <line class="cls-2" x1="447.31" y1="400.08" x2="453.16" y2="400.08"/>
      <line class="cls-2" x1="439.5" y1="396.11" x2="445.35" y2="396.11"/>
      <line class="cls-2" x1="439.25" y1="399.98" x2="445.1" y2="399.98"/>
      <line class="cls-2" x1="439.5" y1="404.04" x2="445.35" y2="404.04"/>
    </g>
    <line class="cls-2" x1="447.31" y1="404.04" x2="453.16" y2="404.04"/>
  </g>
  <g id="fenetre-17" data-name="fenetre">
    <g id="FENETRE-16" data-name="FENETRE">
      <rect class="cls-2" x="437.09" y="430.51" width="18.65" height="29.66"/>
      <rect class="cls-2" x="439.37" y="442.01" width="5.85" height="16.07"/>
      <rect class="cls-2" x="447.31" y="442.01" width="5.85" height="16.07"/>
      <rect class="cls-2" x="447.31" y="432.29" width="5.85" height="8.04"/>
      <rect class="cls-2" x="439.37" y="432.29" width="5.85" height="8.04"/>
      <line class="cls-2" x1="442.3" y1="442.01" x2="442.3" y2="458.08"/>
      <line class="cls-2" x1="450.24" y1="442.01" x2="450.24" y2="458.08"/>
      <line class="cls-2" x1="450.24" y1="432.29" x2="450.24" y2="440.33"/>
      <line class="cls-2" x1="442.3" y1="432.29" x2="442.3" y2="440.33"/>
      <line class="cls-2" x1="447.31" y1="436.31" x2="453.16" y2="436.31"/>
      <line class="cls-2" x1="439.37" y1="436.31" x2="445.23" y2="436.31"/>
      <line class="cls-2" x1="447.56" y1="446.18" x2="453.41" y2="446.18"/>
      <line class="cls-2" x1="447.31" y1="450.05" x2="453.16" y2="450.05"/>
      <line class="cls-2" x1="439.5" y1="446.08" x2="445.35" y2="446.08"/>
      <line class="cls-2" x1="439.25" y1="449.95" x2="445.1" y2="449.95"/>
      <line class="cls-2" x1="439.5" y1="454.02" x2="445.35" y2="454.02"/>
    </g>
    <line class="cls-2" x1="447.31" y1="454.02" x2="453.16" y2="454.02"/>
  </g>
  <g id="fenetre-18" data-name="fenetre">
    <g id="FENETRE-17" data-name="FENETRE">
      <rect class="cls-2" x="346.11" y="430.51" width="18.65" height="29.66"/>
      <rect class="cls-2" x="348.39" y="442.01" width="5.85" height="16.07"/>
      <rect class="cls-2" x="356.33" y="442.01" width="5.85" height="16.07"/>
      <rect class="cls-2" x="356.33" y="432.29" width="5.85" height="8.04"/>
      <rect class="cls-2" x="348.39" y="432.29" width="5.85" height="8.04"/>
      <line class="cls-2" x1="351.32" y1="442.01" x2="351.32" y2="458.08"/>
      <line class="cls-2" x1="359.25" y1="442.01" x2="359.25" y2="458.08"/>
      <line class="cls-2" x1="359.25" y1="432.29" x2="359.25" y2="440.33"/>
      <line class="cls-2" x1="351.32" y1="432.29" x2="351.32" y2="440.33"/>
      <line class="cls-2" x1="356.33" y1="436.31" x2="362.18" y2="436.31"/>
      <line class="cls-2" x1="348.39" y1="436.31" x2="354.24" y2="436.31"/>
      <line class="cls-2" x1="356.57" y1="446.18" x2="362.43" y2="446.18"/>
      <line class="cls-2" x1="356.33" y1="450.05" x2="362.18" y2="450.05"/>
      <line class="cls-2" x1="348.51" y1="446.08" x2="354.37" y2="446.08"/>
      <line class="cls-2" x1="348.27" y1="449.95" x2="354.12" y2="449.95"/>
      <line class="cls-2" x1="348.51" y1="454.02" x2="354.37" y2="454.02"/>
    </g>
    <line class="cls-2" x1="356.33" y1="454.02" x2="362.18" y2="454.02"/>
  </g>
  <g id="facade">
    <g id="facade-2" data-name="facade">
      <polygon class="cls-2" points="999.71 310.52 999.71 297.25 283.88 297.25 283.88 310.52 275.15 310.52 283.88 319.14 283.88 494.86 999.71 494.86 999.71 319.14 1006.86 310.52 999.71 310.52"/>
      <polygon class="cls-2" points="765.33 408.62 762.69 408.62 491.27 408.62 488.95 408.62 491.27 413.39 491.27 494.86 762.69 494.86 762.69 413.36 765.33 408.62"/>
      <line class="cls-2" x1="283.88" y1="310.52" x2="1005.79" y2="310.52"/>
      <line class="cls-2" x1="999.71" y1="319.14" x2="283.88" y2="319.14"/>
      <line class="cls-2" x1="491.27" y1="413.39" x2="762.69" y2="413.39"/>
    </g>
    <rect class="cls-2" x="762.69" y="420.36" width="237.03" height="4.53"/>
    <rect class="cls-2" x="283.88" y="420.36" width="207.4" height="4.53"/>
    <rect class="cls-2" x="283.88" y="366.83" width="715.84" height="4.53"/>
  </g>
  <g id="drapeau">
    <rect class="cls-1" x="627.63" y="181.35" width="4.74" height="115.91"/>
    <rect class="cls-1" x="632.37" y="186.43" width="51.79" height="33.41"/>
    <rect class="cls-1" x="632.37" y="186.43" width="17.2" height="33.41"/>
    <rect class="cls-1" x="667.05" y="186.43" width="17.2" height="33.41"/>
  </g>
  <polyline class="cls-2" points="999.71 341.89 1111.57 373.43 1174.89 400 1174.89 494.86 999.71 494.86"/>
  <polyline class="cls-2" points="283.88 494.86 145.35 494.86 145.35 328.59 189.11 328.59 243.74 313.09 283.88 306.7"/>
  <rect class="cls-2" x="164.85" y="438.38" width="13.62" height="19.7"/>
</svg>