<?xml version="1.0" encoding="UTF-8"?>
<svg id="Calque_1" data-name="Calque 1" xmlns="http://www.w3.org/2000/svg" width="1270" height="800" viewBox="0 0 1270 800">
  <defs>
    <style>
      .cls-1 {
        fill: none;
        stroke: #1d1d1b;
        stroke-miterlimit: 10;
      }
    </style>
  </defs>
  <g id="facade">
    <polyline id="facade-2" data-name="facade" class="cls-1" points="517.7 462.96 517.7 397.6 322.13 397.6 322.13 514.53 265.45 514.53 265.45 578.36 276.68 578.36 276.68 620.23 517.7 620.23 1053.36 620.23 1053.36 591.64 1091.66 591.64 1091.66 462.96 577.62 462.96 577.62 484.06 517.7 484.06 517.7 462.96"/>
    <line class="cls-1" x1="322.13" y1="514.53" x2="517.53" y2="514.53"/>
    <line class="cls-1" x1="517.7" y1="462.96" x2="517.7" y2="514.53"/>
  </g>
  <rect id="fenetre_gauche" class="cls-1" x="276.68" y="578.36" width="81.45" height="41.87"/>
  <rect id="grande_fenetre_droite" class="cls-1" x="638.21" y="591.64" width="415.15" height="28.6"/>
  <rect id="fenetre_haut" class="cls-1" x="326.72" y="404.23" width="185.36" height="101.62"/>
  <g id="fenetre">
    <rect class="cls-1" x="670.51" y="474.62" width="4.34" height="29.62"/>
    <rect class="cls-1" x="670.51" y="474.62" width="32.04" height="29.62"/>
  </g>
  <g id="haute_fenetre">
    <rect class="cls-1" x="326.72" y="404.23" width="27.06" height="101.62"/>
    <rect class="cls-1" x="353.79" y="404.23" width="27.06" height="101.62"/>
    <rect class="cls-1" x="380.85" y="404.23" width="27.06" height="101.62"/>
    <rect class="cls-1" x="407.91" y="404.23" width="27.06" height="101.62"/>
    <rect class="cls-1" x="434.98" y="404.23" width="27.06" height="101.62"/>
    <rect class="cls-1" x="462.04" y="404.23" width="27.06" height="101.62"/>
    <rect class="cls-1" x="489.11" y="404.23" width="22.98" height="101.62"/>
  </g>
  <g id="grosse_fenetre">
    <rect class="cls-1" x="517.7" y="484.06" width="59.91" height="89.87"/>
    <rect class="cls-1" x="517.7" y="511.72" width="59.91" height="4.34"/>
    <rect class="cls-1" x="517.7" y="542.23" width="59.91" height="4.34"/>
  </g>
  <g id="petite_fenetre">
    <rect class="cls-1" x="638.21" y="591.64" width="29.87" height="28.6"/>
    <rect class="cls-1" x="667.96" y="591.64" width="29.87" height="28.6"/>
    <rect class="cls-1" x="697.83" y="591.64" width="29.87" height="28.6"/>
    <rect class="cls-1" x="727.7" y="591.64" width="29.87" height="28.6"/>
    <rect class="cls-1" x="757.45" y="591.64" width="29.87" height="28.6"/>
    <rect class="cls-1" x="787.32" y="591.64" width="29.87" height="28.6"/>
    <rect class="cls-1" x="817.19" y="591.64" width="29.87" height="28.6"/>
    <rect class="cls-1" x="846.94" y="591.64" width="29.87" height="28.6"/>
    <rect class="cls-1" x="876.81" y="591.64" width="29.87" height="28.6"/>
    <rect class="cls-1" x="906.55" y="591.64" width="29.87" height="28.6"/>
    <rect class="cls-1" x="936.29" y="591.64" width="29.87" height="28.6"/>
    <rect class="cls-1" x="966.16" y="591.64" width="29.87" height="28.6"/>
    <rect class="cls-1" x="996.04" y="591.64" width="29.87" height="28.6"/>
    <rect class="cls-1" x="1025.91" y="591.64" width="27.45" height="28.6"/>
  </g>
  <g id="fenetre-2" data-name="fenetre">
    <rect class="cls-1" x="677.02" y="529.6" width="4.34" height="29.62"/>
    <rect class="cls-1" x="677.02" y="529.6" width="32.04" height="29.62"/>
  </g>
  <g id="fenetre-3" data-name="fenetre">
    <rect class="cls-1" x="717.98" y="489.43" width="4.34" height="29.62"/>
    <rect class="cls-1" x="717.98" y="489.43" width="32.04" height="29.62"/>
  </g>
  <g id="fenetre-4" data-name="fenetre">
    <rect class="cls-1" x="767.53" y="476.23" width="4.34" height="29.62"/>
    <rect class="cls-1" x="767.53" y="476.23" width="32.04" height="29.62"/>
  </g>
  <g id="fenetre-5" data-name="fenetre">
    <rect class="cls-1" x="734" y="544.4" width="4.34" height="29.62"/>
    <rect class="cls-1" x="734" y="544.4" width="32.04" height="29.62"/>
  </g>
  <g id="fenetre-6" data-name="fenetre">
    <rect class="cls-1" x="787.32" y="529.6" width="4.34" height="29.62"/>
    <rect class="cls-1" x="787.32" y="529.6" width="32.04" height="29.62"/>
  </g>
  <g id="fenetre-7" data-name="fenetre">
    <rect class="cls-1" x="839.72" y="491.04" width="4.34" height="29.62"/>
    <rect class="cls-1" x="839.72" y="491.04" width="32.04" height="29.62"/>
  </g>
  <g id="fenetre-8" data-name="fenetre">
    <rect class="cls-1" x="873.68" y="545.94" width="4.34" height="29.62"/>
    <rect class="cls-1" x="873.68" y="545.94" width="32.04" height="29.62"/>
  </g>
  <g id="fenetre-9" data-name="fenetre">
    <rect class="cls-1" x="885.3" y="476.23" width="4.34" height="29.62"/>
    <rect class="cls-1" x="885.3" y="476.23" width="32.04" height="29.62"/>
  </g>
  <g id="fenetre-10" data-name="fenetre">
    <rect class="cls-1" x="928.96" y="531.13" width="4.34" height="29.62"/>
    <rect class="cls-1" x="928.96" y="531.13" width="32.04" height="29.62"/>
  </g>
  <g id="fenetre-11" data-name="fenetre">
    <rect class="cls-1" x="972.11" y="492.32" width="4.34" height="29.62"/>
    <rect class="cls-1" x="972.11" y="492.32" width="32.04" height="29.62"/>
  </g>
  <g id="fenetre-12" data-name="fenetre">
    <rect class="cls-1" x="1002.23" y="544.4" width="4.34" height="29.62"/>
    <rect class="cls-1" x="1002.23" y="544.4" width="32.04" height="29.62"/>
  </g>
  <g id="fenetre-13" data-name="fenetre">
    <rect class="cls-1" x="1059.62" y="529.6" width="4.34" height="29.62"/>
    <rect class="cls-1" x="1059.62" y="529.6" width="32.04" height="29.62"/>
  </g>
</svg>