<?xml version="1.0" encoding="UTF-8"?>
<svg id="Calque_1" data-name="Calque 1" xmlns="http://www.w3.org/2000/svg" width="1270" height="800" viewBox="0 0 1270 800">
  <defs>
    <style>
      .cls-1, .cls-2 {
        fill: none;
        stroke: #1d1d1b;
        stroke-miterlimit: 10;
      }

      .cls-2 {
        fill-rule: evenodd;
      }
    </style>
  </defs>
  <polygon id="facade" class="cls-1" points="1225.33 325.16 478.09 163.95 37.88 235.16 16.76 235.16 16.76 266.47 37.88 266.47 37.88 358.03 37.88 369.77 88.23 369.77 88.23 487.95 1225.33 487.95 1225.33 359.86 1240.76 359.86 1240.76 325.16 1225.33 325.16"/>
  <g id="logo">
    <rect class="cls-1" x="106.14" y="275.81" width="88.59" height="84.05"/>
    <circle class="cls-1" cx="150.44" cy="317.83" r="38.05"/>
  </g>
  <rect class="cls-1" x="197.8" y="373.42" width="88.7" height="114.52"/>
  <rect class="cls-1" x="288.85" y="373.42" width="88.7" height="114.52"/>
  <rect class="cls-1" x="380.15" y="373.42" width="88.7" height="114.52"/>
  <rect class="cls-1" x="470.93" y="373.42" width="88.7" height="114.52"/>
  <rect class="cls-1" x="561.98" y="373.42" width="88.7" height="114.52"/>
  <rect class="cls-1" x="653.28" y="373.42" width="88.7" height="114.52"/>
  <rect class="cls-1" x="744.33" y="373.42" width="88.7" height="114.52"/>
  <rect class="cls-1" x="835.37" y="373.42" width="88.7" height="114.52"/>
  <rect class="cls-1" x="926.67" y="373.42" width="88.7" height="114.52"/>
  <rect class="cls-1" x="1017.72" y="373.42" width="88.7" height="114.52"/>
  <rect class="cls-1" x="1109.02" y="373.42" width="88.7" height="114.52"/>
  <line class="cls-1" x1="1225.33" y1="359.86" x2="478.5" y2="203.34"/>
  <polygon class="cls-1" points="1197.72 370.16 1109.02 370.16 1109.02 335.48 1197.72 354.34 1197.72 370.16"/>
  <polygon class="cls-1" points="1106.41 370.16 1017.72 370.16 1017.72 316.35 1106.41 334.94 1106.41 370.16"/>
  <polygon class="cls-1" points="1015.37 370.16 926.67 370.16 926.67 297.27 1015.37 315.85 1015.37 370.16"/>
  <polygon class="cls-1" points="924.06 370.16 835.37 370.16 835.37 278.13 924.06 296.72 924.06 370.16"/>
  <polygon class="cls-1" points="833.02 370.16 744.33 370.16 744.33 259.05 833.02 277.64 833.02 370.16"/>
  <polygon class="cls-1" points="741.98 370.16 653.28 370.16 653.28 255.64 728.06 255.64 741.98 258.56 741.98 370.16"/>
  <rect class="cls-1" x="561.98" y="255.64" width="88.7" height="114.52"/>
  <rect class="cls-1" x="470.93" y="255.64" width="88.7" height="114.52"/>
  <rect class="cls-1" x="380.15" y="255.64" width="88.7" height="114.52"/>
  <rect class="cls-1" x="288.85" y="255.64" width="88.7" height="114.52"/>
  <rect class="cls-1" x="197.8" y="255.64" width="88.7" height="114.52"/>
  <rect class="cls-1" x="106.04" y="373.42" width="88.7" height="114.52"/>
  <polygon class="cls-1" points="194.74 370.16 106.04 370.16 106.04 256.7 114.42 255.5 194.44 255.64 194.74 370.16"/>
  <polygon class="cls-1" points="723.46 255.64 113.35 255.64 113.35 255.64 223.59 239.86 652.37 239.78 728.06 255.64 723.46 255.64"/>
  <polygon class="cls-1" points="559.63 237.77 470.93 237.77 470.93 204.42 478.5 203.34 559.63 220.34 559.63 237.77"/>
  <line class="cls-1" x1="37.88" y1="266.47" x2="478.5" y2="203.34"/>
  <polygon class="cls-1" points="642.8 237.77 561.98 237.77 561.98 220.83 614.25 231.79 642.8 237.77"/>
  <polygon class="cls-1" points="468.85 237.77 380.15 237.77 380.15 217.43 468.85 204.72 468.85 237.77"/>
  <polygon class="cls-1" points="377.54 237.77 288.85 237.77 288.85 230.51 377.54 217.8 377.54 237.77"/>
  <polygon class="cls-1" points="286.5 237.77 235.22 238.19 235.22 238.19 286.5 230.85 286.5 237.77"/>
  <g id="barriere">
    <line class="cls-1" x1="34.32" y1="200.42" x2="478.36" y2="125.74"/>
    <line class="cls-1" x1="1227.46" y1="289.27" x2="478.36" y2="125.74"/>
    <line class="cls-1" x1="478.09" y1="163.95" x2="478.36" y2="125.74"/>
    <line class="cls-1" x1="34.99" y1="200.63" x2="37.88" y2="235.16"/>
    <line class="cls-1" x1="108.23" y1="188.46" x2="112.89" y2="223.48"/>
    <line class="cls-1" x1="181.47" y1="176" x2="186.17" y2="211.63"/>
    <line class="cls-1" x1="254.76" y1="163.35" x2="259.59" y2="199.83"/>
    <line class="cls-1" x1="329.17" y1="150.83" x2="333.98" y2="187.02"/>
    <line class="cls-1" x1="402.42" y1="138.51" x2="407.26" y2="175.17"/>
    <line class="cls-1" x1="560.52" y1="143.68" x2="552.52" y2="180.34"/>
    <line class="cls-1" x1="632.38" y1="158.85" x2="624.88" y2="195.61"/>
    <line class="cls-1" x1="704.88" y1="175.19" x2="697" y2="211.18"/>
    <line class="cls-1" x1="778.56" y1="191.27" x2="770.85" y2="227.04"/>
    <line class="cls-1" x1="851.08" y1="207.1" x2="843.26" y2="242.73"/>
    <line class="cls-1" x1="934.68" y1="224.92" x2="926.67" y2="261.58"/>
    <line class="cls-1" x1="1006.53" y1="240.09" x2="999.03" y2="276.86"/>
    <line class="cls-1" x1="1079.03" y1="256.43" x2="1071.16" y2="292.42"/>
    <line class="cls-1" x1="1152.71" y1="272.51" x2="1145" y2="308.28"/>
    <line class="cls-1" x1="1227.19" y1="289.05" x2="1225.33" y2="325.16"/>
  </g>
  <g>
    <path class="cls-2" d="M142.43,312.56c2.3,0,4.19-1.89,4.19-4.21s-1.89-4.2-4.19-4.2-4.2,1.88-4.2,4.2,1.88,4.21,4.2,4.21Z"/>
    <path class="cls-2" d="M168.61,310.4h12.02v2.7h-1.9v9.64l7.41-4.06.03,7.08h-17.63v-2.8h1.98v-9.86s-1.9,0-1.9,0v-2.7s-.01,0-.01,0Z"/>
    <path class="cls-2" d="M153.41,319.64l-1.1-1.57-3.86,3.01-5.99-7.6-11.8,9.3,1.7,1.18,2.86-2.27,4.78,6.07-1.4,1.09,1.22,1.55,13.59-10.74h0Z"/>
    <path class="cls-2" d="M116.12,310.4h12v2.7h-1.88v9.64l7.41-4.05v7.08s-17.6,0-17.6,0v-2.78h1.96v-9.87s-1.91,0-1.91,0v-2.7ZM162.43,325.76h-12.51v-2.72h2.12l-.04-9.82h-2.12v-2.66h12.62c3.66-.01,6.57,2.54,6.61,7.57-.03,5.19-3.26,7.63-6.68,7.63h0ZM159.93,321.01c1.46-.01,2.67-.84,2.68-3.08,0-2.17-1.25-3.12-2.66-3.12l-.03,6.2h0Z"/>
  </g>
  <line class="cls-1" x1="34" y1="216.22" x2="478.04" y2="141.53"/>
  <line class="cls-1" x1="1227.14" y1="305.06" x2="478.04" y2="141.53"/>
</svg>